# 3ds Max Wavefront OBJ Exporter v0.97b - (c)2007 guruware
# File Created: 24.08.2017 20:10:25

mtllib 1979-fp-temple.mtl

#
# object Obj_000193
#

v  -22.3511 0.0000 74.7673
v  -22.3511 0.2000 74.7673
v  5.2018 0.0000 125.2841
v  5.2018 0.2000 125.2841
v  115.5258 0.0000 61.0114
v  115.5258 0.2000 61.0114
v  115.9381 0.0000 60.7843
v  115.9381 0.2000 60.7843
v  116.2544 0.0000 60.5924
v  116.2544 0.2000 60.5924
v  116.7812 0.0000 60.2352
v  116.7812 0.2000 60.2352
v  117.2081 0.0000 59.9076
v  117.2081 0.2000 59.9076
v  117.5821 0.0000 59.5887
v  117.5821 0.2000 59.5887
v  117.9990 0.0000 59.1929
v  117.9990 0.2000 59.1929
v  118.4809 0.0000 58.6728
v  118.4809 0.2000 58.6728
v  118.8453 0.0000 58.2247
v  118.8453 0.2000 58.2247
v  119.2010 0.0000 57.7303
v  119.2010 0.2000 57.7303
v  119.4766 0.0000 57.2979
v  119.4766 0.2000 57.2979
v  119.7588 0.0000 56.7969
v  119.7588 0.2000 56.7969
v  119.9825 0.0000 56.3443
v  119.9825 0.2000 56.3443
v  120.2243 0.0000 55.7772
v  120.2243 0.2000 55.7772
v  120.3891 0.0000 55.3228
v  120.3891 0.2000 55.3228
v  120.5455 0.0000 54.8118
v  120.5455 0.2000 54.8118
v  120.6550 0.0000 54.3795
v  120.6550 0.2000 54.3795
v  120.8125 0.0000 53.5254
v  120.8125 0.2000 53.5254
v  120.9019 0.0000 52.5117
v  120.9019 0.2000 52.5117
v  120.9016 0.0000 51.7623
v  120.9016 0.2000 51.7623
v  120.8546 0.0000 51.1020
v  120.8546 0.2000 51.1020
v  120.7784 0.0000 50.5320
v  120.7784 0.2000 50.5320
v  120.6667 0.0000 49.9543
v  120.6667 0.2000 49.9543
v  120.5094 0.0000 49.3433
v  120.5094 0.2000 49.3433
v  120.3219 0.0000 48.7658
v  120.3219 0.2000 48.7658
v  120.0752 0.0000 48.1442
v  120.0752 0.2000 48.1442
v  119.8066 0.0000 47.5774
v  119.8066 0.2000 47.5774
v  119.4331 0.0000 46.9128
v  119.4331 0.2000 46.9128
v  80.0386 0.0000 -17.3161
v  80.0386 0.2000 -17.3161
v  41.5938 0.0000 -0.8315
v  41.5938 0.2000 -0.8315
v  59.0195 0.0000 39.8998
v  59.0195 0.2000 39.8998
# 66 vertices

vn 0.0000 0.0000 1.0000
vn -0.8599 0.0000 -0.5105
vn -0.8779 0.0000 0.4788
vn 0.5034 0.0000 0.8641
vn 0.4825 0.0000 0.8759
vn 0.5188 0.0000 0.8549
vn 0.5612 0.0000 0.8277
vn 0.6088 0.0000 0.7933
vn 0.6488 0.0000 0.7609
vn 0.6885 0.0000 0.7253
vn 0.7336 0.0000 0.6796
vn 0.7758 0.0000 0.6310
vn 0.8118 0.0000 0.5839
vn 0.8433 0.0000 0.5375
vn 0.8713 0.0000 0.4908
vn 0.8965 0.0000 0.4431
vn 0.9199 0.0000 0.3922
vn 0.9401 0.0000 0.3410
vn 0.9562 0.0000 0.2927
vn 0.9694 0.0000 0.2455
vn 0.9834 0.0000 0.1813
vn 0.9961 0.0000 0.0879
vn 1.0000 0.0000 -0.0004
vn 0.9975 0.0000 -0.0709
vn 0.9912 0.0000 -0.1325
vn 0.9818 0.0000 -0.1899
vn 0.9684 0.0000 -0.2494
vn 0.9511 0.0000 -0.3088
vn 0.9295 0.0000 -0.3688
vn 0.9037 0.0000 -0.4282
vn 0.8717 0.0000 -0.4900
vn 0.8524 0.0000 -0.5228
vn -0.3941 0.0000 -0.9191
vn -0.9194 0.0000 0.3933
vn -0.3939 0.0000 -0.9192
vn 0.0000 -1.0000 -0.0000
vn 0.0000 1.0000 -0.0000
# 37 vertex normals

vt 0.0000 0.0000 0.0000
vt 0.0000 0.5004 0.0000
vt 0.1274 0.0000 0.0000
vt 0.1274 0.5004 0.0000
vt 0.4101 0.0000 0.0000
vt 0.4101 0.5004 0.0000
vt 0.4112 0.0000 0.0000
vt 0.4112 0.5004 0.0000
vt 0.4120 0.0000 0.0000
vt 0.4120 0.5004 0.0000
vt 0.4134 0.0000 0.0000
vt 0.4134 0.5004 0.0000
vt 0.4146 0.0000 0.0000
vt 0.4146 0.5004 0.0000
vt 0.4157 0.0000 0.0000
vt 0.4157 0.5004 0.0000
vt 0.4169 0.0000 0.0000
vt 0.4169 0.5004 0.0000
vt 0.4185 0.0000 0.0000
vt 0.4185 0.5004 0.0000
vt 0.4198 0.0000 0.0000
vt 0.4198 0.5004 0.0000
vt 0.4211 0.0000 0.0000
vt 0.4211 0.5004 0.0000
vt 0.4223 0.0000 0.0000
vt 0.4223 0.5004 0.0000
vt 0.4235 0.0000 0.0000
vt 0.4235 0.5004 0.0000
vt 0.4247 0.0000 0.0000
vt 0.4247 0.5004 0.0000
vt 0.4260 0.0000 0.0000
vt 0.4260 0.5004 0.0000
vt 0.4271 0.0000 0.0000
vt 0.4271 0.5004 0.0000
vt 0.4283 0.0000 0.0000
vt 0.4283 0.5004 0.0000
vt 0.4293 0.0000 0.0000
vt 0.4293 0.5004 0.0000
vt 0.4312 0.0000 0.0000
vt 0.4312 0.5004 0.0000
vt 0.4334 0.0000 0.0000
vt 0.4334 0.5004 0.0000
vt 0.4351 0.0000 0.0000
vt 0.4351 0.5004 0.0000
vt 0.4366 0.0000 0.0000
vt 0.4366 0.5004 0.0000
vt 0.4378 0.0000 0.0000
vt 0.4378 0.5004 0.0000
vt 0.4392 0.0000 0.0000
vt 0.4392 0.5004 0.0000
vt 0.4405 0.0000 0.0000
vt 0.4405 0.5004 0.0000
vt 0.4419 0.0000 0.0000
vt 0.4419 0.5004 0.0000
vt 0.4434 0.0000 0.0000
vt 0.4434 0.5004 0.0000
vt 0.4448 0.0000 0.0000
vt 0.4448 0.5004 0.0000
vt 0.4464 0.0000 0.0000
vt 0.4464 0.5004 0.0000
vt 0.6133 0.0000 0.0000
vt 0.6133 0.5004 0.0000
vt 0.7059 0.0000 0.0000
vt 0.7059 0.5004 0.0000
vt 0.8040 0.0000 0.0000
vt 0.8040 0.5004 0.0000
vt 1.0000 0.0000 0.0000
vt 1.0000 0.5004 0.0000
vt 0.0013 0.7685 0.0000
vt 0.0003 0.7623 0.0000
vt 0.0001 0.7603 0.0000
vt 0.0000 0.7580 0.0000
vt 0.0000 0.7553 0.0000
vt 0.0005 0.7643 0.0000
vt 0.0033 0.7750 0.0000
vt 0.0018 0.7706 0.0000
vt 0.0002 0.7518 0.0000
vt 0.0009 0.7664 0.0000
vt 0.0025 0.7403 0.0000
vt 0.0005 0.7488 0.0000
vt 0.0008 0.7473 0.0000
vt 0.0011 0.7455 0.0000
vt 0.0015 0.7439 0.0000
vt 0.0020 0.7419 0.0000
vt 0.0032 0.7386 0.0000
vt 0.0038 0.7370 0.0000
vt 0.0024 0.7726 0.0000
vt 0.0110 0.7263 0.0000
vt 0.0046 0.7353 0.0000
vt 0.0054 0.7337 0.0000
vt 0.0064 0.7319 0.0000
vt 0.0082 0.7294 0.0000
vt 0.1370 0.7995 0.0000
vt 0.1756 0.9422 0.0000
vt 0.0905 1.0000 0.0000
vt 0.0119 0.7256 0.0000
vt 0.0103 0.7270 0.0000
vt 0.0091 0.7283 0.0000
vt 0.0074 0.7305 0.0000
vt 0.2562 0.5004 0.0000
vt 0.3172 0.6774 0.0000
vt 0.0013 0.7319 0.0000
vt 0.0001 0.7401 0.0000
vt 0.0003 0.7381 0.0000
vt 0.0000 0.7424 0.0000
vt 0.0000 0.7450 0.0000
vt 0.0005 0.7361 0.0000
vt 0.0033 0.7254 0.0000
vt 0.0018 0.7297 0.0000
vt 0.0002 0.7486 0.0000
vt 0.0009 0.7339 0.0000
vt 0.0025 0.7600 0.0000
vt 0.0005 0.7516 0.0000
vt 0.0011 0.7549 0.0000
vt 0.0008 0.7531 0.0000
vt 0.0015 0.7565 0.0000
vt 0.0020 0.7584 0.0000
vt 0.0032 0.7618 0.0000
vt 0.0038 0.7633 0.0000
vt 0.0024 0.7277 0.0000
vt 0.0110 0.7740 0.0000
vt 0.0046 0.7650 0.0000
vt 0.0064 0.7684 0.0000
vt 0.0054 0.7666 0.0000
vt 0.0082 0.7709 0.0000
vt 0.1370 0.7008 0.0000
vt 0.0905 0.5004 0.0000
vt 0.1756 0.5581 0.0000
vt 0.0119 0.7748 0.0000
vt 0.0103 0.7733 0.0000
vt 0.0091 0.7721 0.0000
vt 0.0074 0.7698 0.0000
vt 0.2562 1.0000 0.0000
vt 0.3172 0.8230 0.0000
# 134 texture coords

o Obj_000193
g Obj_000193
usemtl New_material_002
s 1
f 1/1/1 1/1/2 2/2/2 2/2/1 
f 1/1/2 3/3/3 4/4/3 2/2/2 
f 3/3/4 5/5/4 6/6/4 4/4/4 
f 5/5/5 7/7/5 8/8/5 6/6/5 
f 7/7/6 9/9/6 10/10/6 8/8/6 
f 9/9/7 11/11/7 12/12/7 10/10/7 
f 11/11/8 13/13/8 14/14/8 12/12/8 
f 13/13/9 15/15/9 16/16/9 14/14/9 
f 15/15/10 17/17/10 18/18/10 16/16/10 
f 17/17/11 19/19/11 20/20/11 18/18/11 
f 19/19/12 21/21/12 22/22/12 20/20/12 
f 21/21/13 23/23/13 24/24/13 22/22/13 
f 23/23/14 25/25/14 26/26/14 24/24/14 
f 25/25/15 27/27/15 28/28/15 26/26/15 
f 27/27/16 29/29/16 30/30/16 28/28/16 
f 29/29/17 31/31/17 32/32/17 30/30/17 
f 31/31/18 33/33/18 34/34/18 32/32/18 
f 33/33/19 35/35/19 36/36/19 34/34/19 
f 35/35/20 37/37/20 38/38/20 36/36/20 
f 37/37/21 39/39/21 40/40/21 38/38/21 
f 39/39/22 41/41/22 42/42/22 40/40/22 
f 41/41/23 43/43/23 44/44/23 42/42/23 
f 43/43/24 45/45/24 46/46/24 44/44/24 
f 45/45/25 47/47/25 48/48/25 46/46/25 
f 47/47/26 49/49/26 50/50/26 48/48/26 
f 49/49/27 51/51/27 52/52/27 50/50/27 
f 51/51/28 53/53/28 54/54/28 52/52/28 
f 53/53/29 55/55/29 56/56/29 54/54/29 
f 55/55/30 57/57/30 58/58/30 56/56/30 
f 57/57/31 59/59/31 60/60/31 58/58/31 
f 59/59/32 61/61/32 62/62/32 60/60/32 
f 61/61/33 63/63/33 64/64/33 62/62/33 
f 63/63/34 65/65/34 66/66/34 64/64/34 
f 65/65/35 1/67/35 2/68/35 66/66/35 
f 53/69/36 47/70/36 45/71/36 
f 43/72/36 41/73/36 45/71/36 
f 49/74/36 47/70/36 53/69/36 
f 59/75/36 55/76/36 53/69/36 
f 53/69/36 45/71/36 39/77/36 
f 53/69/36 51/78/36 49/74/36 
f 53/69/36 27/79/36 59/75/36 
f 37/80/36 53/69/36 39/77/36 
f 37/80/36 35/81/36 33/82/36 
f 45/71/36 41/73/36 39/77/36 
f 31/83/36 37/80/36 33/82/36 
f 29/84/36 27/79/36 31/83/36 
f 31/83/36 27/79/36 37/80/36 
f 27/79/36 53/69/36 37/80/36 
f 25/85/36 23/86/36 27/79/36 
f 55/76/36 59/75/36 57/87/36 
f 27/79/36 7/88/36 59/75/36 
f 23/86/36 21/89/36 27/79/36 
f 21/89/36 19/90/36 17/91/36 
f 13/92/36 21/89/36 17/91/36 
f 65/93/36 63/94/36 61/95/36 
f 65/93/36 59/75/36 5/96/36 
f 27/79/36 21/89/36 13/92/36 
f 61/95/36 59/75/36 65/93/36 
f 7/88/36 13/92/36 9/97/36 
f 13/92/36 11/98/36 9/97/36 
f 13/92/36 17/91/36 15/99/36 
f 13/92/36 7/88/36 27/79/36 
f 5/96/36 3/100/36 65/93/36 
f 3/100/36 1/101/36 65/93/36 
f 5/96/36 59/75/36 7/88/36 
f 65/93/36 1/101/36 1/101/36 
f 54/102/37 46/103/37 48/104/37 
f 44/105/37 46/103/37 42/106/37 
f 50/107/37 54/102/37 48/104/37 
f 60/108/37 54/102/37 56/109/37 
f 54/102/37 40/110/37 46/103/37 
f 54/102/37 50/107/37 52/111/37 
f 54/102/37 60/108/37 28/112/37 
f 38/113/37 40/110/37 54/102/37 
f 38/113/37 34/114/37 36/115/37 
f 46/103/37 40/110/37 42/106/37 
f 32/116/37 34/114/37 38/113/37 
f 30/117/37 32/116/37 28/112/37 
f 32/116/37 38/113/37 28/112/37 
f 28/112/37 38/113/37 54/102/37 
f 26/118/37 28/112/37 24/119/37 
f 56/109/37 58/120/37 60/108/37 
f 28/112/37 60/108/37 8/121/37 
f 24/119/37 28/112/37 22/122/37 
f 22/122/37 18/123/37 20/124/37 
f 14/125/37 18/123/37 22/122/37 
f 66/126/37 62/127/37 64/128/37 
f 66/126/37 6/129/37 60/108/37 
f 28/112/37 14/125/37 22/122/37 
f 62/127/37 66/126/37 60/108/37 
f 8/121/37 10/130/37 14/125/37 
f 14/125/37 10/130/37 12/131/37 
f 14/125/37 16/132/37 18/123/37 
f 14/125/37 28/112/37 8/121/37 
f 6/129/37 66/126/37 4/133/37 
f 4/133/37 66/126/37 2/134/37 
f 6/129/37 8/121/37 60/108/37 
f 66/126/37 2/134/37 2/134/37 
# 34 polygons - 64 triangles

