# 3ds Max Wavefront OBJ Exporter v0.97b - (c)2007 guruware
# File Created: 24.08.2017 20:02:33

mtllib 1979-orph.mtl

#
# object Obj_000172
#

v  -76.3343 3.0000 38.2231
v  -81.5080 3.0000 23.1316
v  -16.2752 3.0000 0.7681
v  -11.1014 3.0000 15.8596
v  -78.9212 4.5000 30.6774
v  -13.6883 4.5000 8.3138
# 6 vertices

vn 0.0000 -1.0000 -0.0000
vn -0.0599 0.9828 -0.1748
vn 0.0599 0.9828 0.1748
vn -0.9460 -0.0000 0.3243
vn 0.9460 0.0000 -0.3243
# 5 vertex normals

vt 0.0000 0.0000 0.0000
vt 0.4745 0.0000 0.0000
vt 0.4745 1.0000 0.0000
vt 0.0000 1.0000 0.0000
vt 0.7159 0.0000 0.0000
vt 0.7159 1.0000 0.0000
vt 0.9574 0.0000 0.0000
vt 0.9574 1.0000 0.0000
vt 0.9574 0.1157 0.0000
vt 1.0000 0.0000 0.0000
vt 1.0000 0.2313 0.0000
# 11 texture coords

o Obj_000172
g Obj_000172
usemtl mat171
s 1
f 1/1/1 2/2/1 3/3/1 4/4/1 
f 2/2/2 5/5/2 6/6/2 3/3/2 
f 5/5/3 1/7/3 4/8/3 6/6/3 
f 5/9/4 2/10/4 1/11/4 
f 6/9/5 4/10/5 3/11/5 
# 3 polygons - 2 triangles

#
# object Obj_000131
#

v  -12.0480 6.0000 16.1821
v  -17.2218 6.0000 1.0905
v  -5.8703 6.0000 -2.8010
v  -0.6965 6.0000 12.2905
v  -14.6349 8.5000 8.6363
v  -3.2834 8.5000 4.7447
# 6 vertices

vn 0.0000 -1.0000 -0.0000
vn -0.0970 0.9542 -0.2829
vn 0.0970 0.9542 0.2829
vn -0.9460 -0.0000 0.3243
vn -0.9460 0.0000 0.3243
vn 0.9460 0.0000 -0.3243
# 6 vertex normals

vt 0.0000 0.0000 0.0000
vt 0.4883 0.0000 0.0000
vt 0.4883 0.8529 0.0000
vt 0.0000 0.8529 0.0000
vt 0.7441 0.0000 0.0000
vt 0.7441 0.8529 0.0000
vt 1.0000 0.0000 0.0000
vt 1.0000 0.8529 0.0000
vt 0.2441 0.8529 0.0000
vt 0.4883 1.0000 0.0000
vt 0.0000 1.0000 0.0000
vt 0.2441 1.0000 0.0000
# 12 texture coords

o Obj_000131
g Obj_000131
usemtl mat130
s 1
f 7/12/6 8/13/6 9/14/6 10/15/6 
f 8/13/7 11/16/7 12/17/7 9/14/7 
f 11/16/8 7/18/8 10/19/8 12/17/8 
f 11/20/9 8/21/10 7/22/9 
f 12/23/11 10/15/11 9/14/11 
# 3 polygons - 2 triangles

#
# object Obj_000050
#

v  -81.1844 0.0000 24.0757
v  -76.6590 0.0000 37.2759
v  -76.6590 3.0000 37.2759
v  -81.1844 3.0000 24.0757
v  -1.9520 0.0000 11.7120
v  -1.9520 3.0000 11.7120
v  -6.4920 0.0000 -1.5308
v  -6.4920 3.0000 -1.5308
# 8 vertices

vn -0.9460 0.0000 0.3243
vn 0.3238 0.0000 0.9461
vn 0.9460 0.0000 -0.3243
vn -0.3243 0.0000 -0.9460
vn 0.0000 -1.0000 -0.0000
vn 0.0000 1.0000 -0.0000
# 6 vertex normals

vt 0.0000 0.0000 0.0000
vt 0.0751 0.0000 0.0000
vt 0.0751 0.5484 0.0000
vt 0.0000 0.5484 0.0000
vt 0.4999 0.0000 0.0000
vt 0.4999 0.5484 0.0000
vt 0.5752 0.0000 0.0000
vt 0.5752 0.5484 0.0000
vt 1.0000 0.0000 0.0000
vt 1.0000 0.5484 0.0000
vt 0.4248 0.5484 0.0000
vt 0.0000 1.0000 0.0000
vt 0.0000 0.5498 0.0000
vt 0.4248 1.0000 0.0000
vt 1.0000 1.0000 0.0000
vt 0.5752 0.9985 0.0000
# 16 texture coords

o Obj_000050
g Obj_000050
usemtl mat49
s 1
f 13/24/12 14/25/12 15/26/12 16/27/12 
f 14/25/13 17/28/13 18/29/13 15/26/13 
f 17/28/14 19/30/14 20/31/14 18/29/14 
f 19/30/15 13/32/15 16/33/15 20/31/15 
f 19/34/16 14/35/16 13/36/16 
f 14/35/16 19/34/16 17/37/16 
f 20/38/17 16/39/17 15/31/17 
f 15/31/17 18/33/17 20/38/17 
# 4 polygons - 4 triangles

#
# object Obj_000049
#

v  -11.4251 3.0000 14.9155
v  -1.9530 3.0000 11.7089
v  -1.9530 6.0000 11.7089
v  -11.4251 6.0000 14.9155
v  -6.4920 3.0000 -1.5308
v  -6.4920 6.0000 -1.5308
v  -15.9515 3.0000 1.7122
v  -15.9515 6.0000 1.7122
# 8 vertices

vn 0.3207 0.0000 0.9472
vn 0.9460 0.0000 -0.3243
vn -0.3243 0.0000 -0.9460
vn -0.9460 0.0000 0.3243
vn 0.0000 -1.0000 -0.0000
vn 0.0000 1.0000 -0.0000
# 6 vertex normals

vt 0.0000 0.0000 0.0000
vt 0.2085 0.0000 0.0000
vt 0.2085 0.5652 0.0000
vt 0.0000 0.5652 0.0000
vt 0.5004 0.0000 0.0000
vt 0.5004 0.5652 0.0000
vt 0.7089 0.0000 0.0000
vt 0.7089 0.5652 0.0000
vt 1.0000 0.0000 0.0000
vt 1.0000 0.5652 0.0000
vt 0.2919 1.0000 0.0000
vt 0.0000 1.0000 0.0000
vt 0.0008 0.5652 0.0000
vt 0.2919 0.5652 0.0000
vt 0.7089 1.0000 0.0000
vt 0.7081 0.5652 0.0000
vt 1.0000 1.0000 0.0000
# 17 texture coords

o Obj_000049
g Obj_000049
usemtl mat48
s 1
f 21/40/18 22/41/18 23/42/18 24/43/18 
f 22/41/19 25/44/19 26/45/19 23/42/19 
f 25/44/20 27/46/20 28/47/20 26/45/20 
f 27/46/21 21/48/21 24/49/21 28/47/21 
f 25/50/22 22/51/22 21/52/22 
f 21/52/22 27/53/22 25/50/22 
f 26/49/23 24/54/23 23/55/23 
f 24/54/23 26/49/23 28/56/23 
# 4 polygons - 4 triangles

