# 3ds Max Wavefront OBJ Exporter v0.97b - (c)2007 guruware
# File Created: 24.08.2017 20:11:17

mtllib 1979-fp-wat.mtl

#
# object Obj_000194
#

v  -142.2779 0.0000 98.4813
v  -131.4535 0.0000 115.0554
v  -131.4535 0.2000 115.0554
v  -142.2779 0.2000 98.4813
v  -100.4595 0.0000 174.1293
v  -100.4595 0.2000 174.1293
v  -99.7872 0.0000 175.2443
v  -99.7872 0.2000 175.2443
v  -99.1350 0.0000 176.0819
v  -99.1350 0.2000 176.0819
v  -98.3752 0.0000 176.8657
v  -98.3752 0.2000 176.8657
v  -97.8810 0.0000 177.2931
v  -97.8810 0.2000 177.2931
v  -97.2254 0.0000 177.7804
v  -97.2254 0.2000 177.7804
v  -96.5885 0.0000 178.1799
v  -96.5885 0.2000 178.1799
v  -95.9154 0.0000 178.5339
v  -95.9154 0.2000 178.5339
v  -95.2579 0.0000 178.8195
v  -95.2579 0.2000 178.8195
v  -94.4294 0.0000 179.1030
v  -94.4294 0.2000 179.1030
v  -93.2858 0.0000 179.3667
v  -93.2858 0.2000 179.3667
v  -92.5451 0.0000 179.4634
v  -92.5451 0.2000 179.4634
v  -92.1412 0.0000 179.4926
v  -92.1412 0.2000 179.4926
v  -91.5090 0.0000 179.5051
v  -91.5090 0.2000 179.5051
v  -90.9629 0.0000 179.4836
v  -90.9629 0.2000 179.4836
v  -90.4511 0.0000 179.4359
v  -90.4511 0.2000 179.4359
v  -89.9070 0.0000 179.3557
v  -89.9070 0.2000 179.3557
v  -89.3288 0.0000 179.2363
v  -89.3288 0.2000 179.2363
v  -88.8160 0.0000 179.0998
v  -88.8160 0.2000 179.0998
v  -88.1568 0.0000 178.8801
v  -88.1568 0.2000 178.8801
v  -87.6603 0.0000 178.6797
v  -87.6603 0.2000 178.6797
v  -87.1190 0.0000 178.4244
v  -87.1190 0.2000 178.4244
v  -86.6676 0.0000 178.1798
v  -86.6676 0.2000 178.1798
v  -45.6939 0.0000 154.5884
v  -45.6939 0.2000 154.5884
v  5.2018 0.0000 125.2841
v  5.2018 0.2000 125.2841
v  -35.4010 0.0000 50.9934
v  -35.4010 0.2000 50.9934
# 56 vertices

vn -0.8373 0.0000 0.5468
vn -0.8855 0.0000 0.4646
vn -0.8564 0.0000 0.5164
vn -0.7890 0.0000 0.6143
vn -0.7180 0.0000 0.6961
vn -0.6542 0.0000 0.7563
vn -0.5965 0.0000 0.8026
vn -0.5314 0.0000 0.8471
vn -0.4655 0.0000 0.8851
vn -0.3984 0.0000 0.9172
vn -0.3238 0.0000 0.9461
vn -0.2247 0.0000 0.9744
vn -0.1296 0.0000 0.9916
vn -0.0720 0.0000 0.9974
vn -0.0198 0.0000 0.9998
vn 0.0395 0.0000 0.9992
vn 0.0927 0.0000 0.9957
vn 0.1458 0.0000 0.9893
vn 0.2023 0.0000 0.9793
vn 0.2572 0.0000 0.9664
vn 0.3162 0.0000 0.9487
vn 0.3743 0.0000 0.9273
vn 0.4265 0.0000 0.9045
vn 0.4764 0.0000 0.8792
vn 0.4990 0.0000 0.8666
vn 0.8775 0.0000 -0.4796
vn -0.4060 0.0000 -0.9139
vn 0.0000 -1.0000 -0.0000
vn 0.0000 1.0000 -0.0000
# 29 vertex normals

vt 0.0000 0.0000 0.0000
vt 0.0483 0.0000 0.0000
vt 0.0483 0.5005 0.0000
vt 0.0000 0.5005 0.0000
vt 0.2109 0.0000 0.0000
vt 0.2109 0.5005 0.0000
vt 0.2141 0.0000 0.0000
vt 0.2141 0.5005 0.0000
vt 0.2167 0.0000 0.0000
vt 0.2167 0.5005 0.0000
vt 0.2193 0.0000 0.0000
vt 0.2193 0.5005 0.0000
vt 0.2209 0.0000 0.0000
vt 0.2209 0.5005 0.0000
vt 0.2229 0.0000 0.0000
vt 0.2229 0.5005 0.0000
vt 0.2247 0.0000 0.0000
vt 0.2247 0.5005 0.0000
vt 0.2266 0.0000 0.0000
vt 0.2266 0.5005 0.0000
vt 0.2283 0.0000 0.0000
vt 0.2283 0.5005 0.0000
vt 0.2305 0.0000 0.0000
vt 0.2305 0.5005 0.0000
vt 0.2333 0.0000 0.0000
vt 0.2333 0.5005 0.0000
vt 0.2352 0.0000 0.0000
vt 0.2352 0.5005 0.0000
vt 0.2361 0.0000 0.0000
vt 0.2361 0.5005 0.0000
vt 0.2377 0.0000 0.0000
vt 0.2377 0.5005 0.0000
vt 0.2390 0.0000 0.0000
vt 0.2390 0.5005 0.0000
vt 0.2403 0.0000 0.0000
vt 0.2403 0.5005 0.0000
vt 0.2416 0.0000 0.0000
vt 0.2416 0.5005 0.0000
vt 0.2430 0.0000 0.0000
vt 0.2430 0.5005 0.0000
vt 0.2443 0.0000 0.0000
vt 0.2443 0.5005 0.0000
vt 0.2460 0.0000 0.0000
vt 0.2460 0.5005 0.0000
vt 0.2473 0.0000 0.0000
vt 0.2473 0.5005 0.0000
vt 0.2488 0.0000 0.0000
vt 0.2488 0.5005 0.0000
vt 0.2501 0.0000 0.0000
vt 0.2501 0.5005 0.0000
vt 0.3653 0.0000 0.0000
vt 0.3653 0.5005 0.0000
vt 0.5085 0.0000 0.0000
vt 0.5085 0.5005 0.0000
vt 0.7149 0.0000 0.0000
vt 0.7149 0.5005 0.0000
vt 1.0000 0.0000 0.0000
vt 1.0000 0.5005 0.0000
vt 0.1424 0.5266 0.0000
vt 0.0169 1.0000 0.0000
vt 0.0000 0.5585 0.0000
vt 0.2570 0.5008 0.0000
vt 0.2838 0.5495 0.0000
vt 0.2705 0.5062 0.0000
vt 0.2768 0.5160 0.0000
vt 0.2691 0.5048 0.0000
vt 0.2667 0.5028 0.0000
vt 0.2679 0.5037 0.0000
vt 0.2943 0.8978 0.0000
vt 0.2627 0.5010 0.0000
vt 0.2597 0.5005 0.0000
vt 0.2610 0.5006 0.0000
vt 0.2583 0.5006 0.0000
vt 0.2640 0.5014 0.0000
vt 0.2654 0.5021 0.0000
vt 0.2818 0.5320 0.0000
vt 0.2827 0.5373 0.0000
vt 0.2811 0.5289 0.0000
vt 0.2834 0.5427 0.0000
vt 0.3020 1.0000 0.0000
vt 0.2791 0.5219 0.0000
vt 0.2752 0.5129 0.0000
vt 0.2730 0.5092 0.0000
vt 0.2714 0.5072 0.0000
vt 0.2780 0.5188 0.0000
vt 0.2802 0.5251 0.0000
vt 0.1424 0.9740 0.0000
vt 0.0000 0.9420 0.0000
vt 0.0169 0.5005 0.0000
vt 0.2838 0.9511 0.0000
vt 0.2570 0.9997 0.0000
vt 0.2705 0.9944 0.0000
vt 0.2691 0.9958 0.0000
vt 0.2768 0.9845 0.0000
vt 0.2679 0.9968 0.0000
vt 0.2667 0.9977 0.0000
vt 0.2943 0.6028 0.0000
vt 0.2627 0.9996 0.0000
vt 0.2597 1.0000 0.0000
vt 0.2583 0.9999 0.0000
vt 0.2610 0.9999 0.0000
vt 0.2640 0.9991 0.0000
vt 0.2654 0.9985 0.0000
vt 0.2818 0.9686 0.0000
vt 0.2811 0.9717 0.0000
vt 0.2827 0.9632 0.0000
vt 0.2834 0.9578 0.0000
vt 0.3020 0.5005 0.0000
vt 0.2791 0.9786 0.0000
vt 0.2752 0.9876 0.0000
vt 0.2730 0.9913 0.0000
vt 0.2714 0.9934 0.0000
vt 0.2780 0.9818 0.0000
vt 0.2802 0.9754 0.0000
# 114 texture coords

o Obj_000194
g Obj_000194
usemtl New_material_006
s 1
f 1/1/1 2/2/1 3/3/1 4/4/1 
f 2/2/2 5/5/2 6/6/2 3/3/2 
f 5/5/3 7/7/3 8/8/3 6/6/3 
f 7/7/4 9/9/4 10/10/4 8/8/4 
f 9/9/5 11/11/5 12/12/5 10/10/5 
f 11/11/6 13/13/6 14/14/6 12/12/6 
f 13/13/7 15/15/7 16/16/7 14/14/7 
f 15/15/8 17/17/8 18/18/8 16/16/8 
f 17/17/9 19/19/9 20/20/9 18/18/9 
f 19/19/10 21/21/10 22/22/10 20/20/10 
f 21/21/11 23/23/11 24/24/11 22/22/11 
f 23/23/12 25/25/12 26/26/12 24/24/12 
f 25/25/13 27/27/13 28/28/13 26/26/13 
f 27/27/14 29/29/14 30/30/14 28/28/14 
f 29/29/15 31/31/15 32/32/15 30/30/15 
f 31/31/16 33/33/16 34/34/16 32/32/16 
f 33/33/17 35/35/17 36/36/17 34/34/17 
f 35/35/18 37/37/18 38/38/18 36/36/18 
f 37/37/19 39/39/19 40/40/19 38/38/19 
f 39/39/20 41/41/20 42/42/20 40/40/20 
f 41/41/21 43/43/21 44/44/21 42/42/21 
f 43/43/22 45/45/22 46/46/22 44/44/22 
f 45/45/23 47/47/23 48/48/23 46/46/23 
f 47/47/24 49/49/24 50/50/24 48/48/24 
f 49/49/25 51/51/25 52/52/25 50/50/25 
f 51/51/25 53/53/25 54/54/25 52/52/25 
f 53/53/26 55/55/26 56/56/26 54/54/26 
f 55/55/27 1/57/27 4/58/27 56/56/27 
f 51/59/28 55/60/28 53/61/28 
f 51/59/28 49/62/28 5/63/28 
f 29/64/28 21/65/28 31/66/28 
f 31/66/28 35/67/28 33/68/28 
f 49/62/28 31/66/28 21/65/28 
f 55/60/28 51/59/28 2/69/28 
f 31/66/28 41/70/28 35/67/28 
f 45/71/28 43/72/28 47/73/28 
f 49/62/28 47/73/28 43/72/28 
f 31/66/28 49/62/28 41/70/28 
f 41/70/28 49/62/28 43/72/28 
f 35/67/28 41/70/28 39/74/28 
f 39/74/28 37/75/28 35/67/28 
f 11/76/28 9/77/28 13/78/28 
f 7/79/28 13/78/28 9/77/28 
f 55/60/28 2/69/28 1/80/28 
f 49/62/28 21/65/28 7/79/28 
f 49/62/28 7/79/28 5/63/28 
f 13/78/28 7/79/28 17/81/28 
f 23/82/28 21/65/28 25/83/28 
f 25/83/28 29/64/28 27/84/28 
f 21/65/28 29/64/28 25/83/28 
f 17/81/28 21/65/28 19/85/28 
f 7/79/28 21/65/28 17/81/28 
f 17/81/28 15/86/28 13/78/28 
f 2/69/28 51/59/28 5/63/28 
f 52/87/29 54/88/29 56/89/29 
f 52/87/29 6/90/29 50/91/29 
f 30/92/29 32/93/29 22/94/29 
f 32/93/29 34/95/29 36/96/29 
f 50/91/29 22/94/29 32/93/29 
f 56/89/29 3/97/29 52/87/29 
f 32/93/29 36/96/29 42/98/29 
f 46/99/29 48/100/29 44/101/29 
f 50/91/29 44/101/29 48/100/29 
f 32/93/29 42/98/29 50/91/29 
f 42/98/29 44/101/29 50/91/29 
f 36/96/29 40/102/29 42/98/29 
f 40/102/29 36/96/29 38/103/29 
f 12/104/29 14/105/29 10/106/29 
f 8/107/29 10/106/29 14/105/29 
f 56/89/29 4/108/29 3/97/29 
f 50/91/29 8/107/29 22/94/29 
f 50/91/29 6/90/29 8/107/29 
f 14/105/29 18/109/29 8/107/29 
f 24/110/29 26/111/29 22/94/29 
f 26/111/29 28/112/29 30/92/29 
f 22/94/29 26/111/29 30/92/29 
f 18/109/29 20/113/29 22/94/29 
f 8/107/29 18/109/29 22/94/29 
f 18/109/29 14/105/29 16/114/29 
f 3/97/29 6/90/29 52/87/29 
# 28 polygons - 52 triangles

